<?xml version="1.0" encoding="UTF-8" standalone="no"?>
<!DOCTYPE svg PUBLIC "-//W3C//DTD SVG 1.1//EN" "http://www.w3.org/Graphics/SVG/1.1/DTD/svg11.dtd">
<svg width="100%" height="100%" viewBox="0 0 200 200" version="1.1" xmlns="http://www.w3.org/2000/svg" xmlns:xlink="http://www.w3.org/1999/xlink" xml:space="preserve" xmlns:serif="http://www.serif.com/" style="fill-rule:evenodd;clip-rule:evenodd;stroke-linejoin:round;stroke-miterlimit:2;">
    <g transform="matrix(1,0,0,1,-8.08887,2.42271)">
        <g transform="matrix(0.923842,0.00553264,-0.00542055,0.905126,8.74183,1.88258)">
            <circle cx="105.873" cy="110.072" r="74.688" style="fill:rgb(114,178,186);"/>
        </g>
        <g transform="matrix(1,0,0,1,19.4804,121.119)">
            <g>
                <g transform="matrix(72,0,0,72,0,0)">
                    <path d="M0.168,-0.576L0.066,-0.566C0.061,-0.565 0.057,-0.563 0.054,-0.559C0.052,-0.555 0.05,-0.55 0.05,-0.546C0.05,-0.541 0.052,-0.536 0.056,-0.533C0.059,-0.529 0.064,-0.527 0.069,-0.527C0.071,-0.527 0.073,-0.528 0.075,-0.528C0.076,-0.528 0.078,-0.528 0.079,-0.529L0.142,-0.533L0.142,-0.036C0.142,-0.021 0.143,-0.011 0.147,-0.006C0.151,-0.001 0.155,0.002 0.162,0.002C0.167,0.002 0.171,0.001 0.175,-0.001C0.178,-0.003 0.181,-0.008 0.183,-0.015C0.185,-0.023 0.187,-0.034 0.187,-0.05C0.203,-0.033 0.224,-0.019 0.249,-0.008C0.273,0.003 0.3,0.008 0.329,0.008C0.367,0.008 0.399,-0 0.427,-0.018C0.454,-0.035 0.475,-0.059 0.49,-0.089C0.504,-0.12 0.512,-0.155 0.512,-0.194C0.512,-0.233 0.504,-0.268 0.489,-0.299C0.474,-0.329 0.453,-0.353 0.425,-0.371C0.397,-0.388 0.365,-0.397 0.327,-0.397C0.298,-0.397 0.272,-0.393 0.25,-0.384C0.229,-0.375 0.208,-0.362 0.188,-0.345L0.188,-0.557C0.188,-0.57 0.182,-0.576 0.168,-0.576ZM0.328,-0.032C0.297,-0.032 0.27,-0.038 0.246,-0.051C0.223,-0.063 0.204,-0.081 0.188,-0.103L0.188,-0.294C0.222,-0.336 0.267,-0.357 0.324,-0.357C0.354,-0.357 0.38,-0.35 0.401,-0.335C0.422,-0.32 0.438,-0.301 0.449,-0.276C0.459,-0.251 0.465,-0.224 0.465,-0.194C0.465,-0.164 0.46,-0.137 0.449,-0.113C0.439,-0.088 0.423,-0.068 0.403,-0.054C0.382,-0.039 0.357,-0.032 0.328,-0.032Z" style="fill:rgb(0,0,139);fill-rule:nonzero;"/>
                </g>
                <g transform="matrix(72,0,0,72,43.5938,0)">
                    <path d="M0.397,-0.229L0.362,-0.227C0.309,-0.223 0.267,-0.219 0.235,-0.213C0.204,-0.208 0.177,-0.196 0.156,-0.179C0.134,-0.162 0.124,-0.136 0.124,-0.103C0.124,-0.069 0.134,-0.042 0.154,-0.022C0.175,-0.002 0.203,0.008 0.24,0.008C0.274,0.008 0.305,0.002 0.334,-0.01C0.363,-0.022 0.385,-0.037 0.401,-0.055C0.405,-0.032 0.412,-0.017 0.424,-0.009C0.435,-0.001 0.449,0.003 0.466,0.003C0.48,0.003 0.495,0 0.508,-0.006C0.522,-0.012 0.534,-0.021 0.544,-0.032C0.547,-0.035 0.549,-0.04 0.549,-0.044C0.549,-0.05 0.547,-0.054 0.543,-0.059C0.54,-0.063 0.536,-0.065 0.531,-0.065C0.527,-0.065 0.523,-0.063 0.519,-0.059C0.514,-0.053 0.506,-0.048 0.497,-0.043C0.487,-0.038 0.478,-0.035 0.47,-0.035C0.462,-0.035 0.456,-0.037 0.451,-0.041C0.447,-0.045 0.444,-0.053 0.444,-0.064L0.444,-0.217C0.444,-0.257 0.44,-0.289 0.432,-0.316C0.423,-0.342 0.408,-0.362 0.387,-0.376C0.366,-0.39 0.336,-0.397 0.299,-0.397C0.266,-0.397 0.236,-0.393 0.21,-0.384C0.185,-0.375 0.165,-0.363 0.15,-0.347C0.136,-0.332 0.129,-0.314 0.129,-0.294C0.129,-0.284 0.131,-0.276 0.136,-0.269C0.142,-0.263 0.149,-0.259 0.158,-0.259C0.169,-0.259 0.177,-0.266 0.182,-0.278C0.186,-0.291 0.189,-0.31 0.19,-0.335C0.208,-0.343 0.225,-0.348 0.242,-0.352C0.259,-0.355 0.278,-0.357 0.298,-0.357C0.335,-0.357 0.36,-0.347 0.375,-0.327C0.39,-0.306 0.397,-0.277 0.397,-0.239L0.397,-0.229ZM0.397,-0.092C0.38,-0.074 0.357,-0.059 0.33,-0.048C0.302,-0.037 0.274,-0.032 0.245,-0.032C0.223,-0.032 0.205,-0.037 0.191,-0.049C0.178,-0.06 0.171,-0.078 0.171,-0.103C0.171,-0.125 0.179,-0.143 0.194,-0.154C0.21,-0.166 0.231,-0.174 0.258,-0.179C0.284,-0.184 0.324,-0.189 0.377,-0.194L0.397,-0.196L0.397,-0.092Z" style="fill:rgb(0,0,139);fill-rule:nonzero;"/>
                </g>
                <g transform="matrix(72,0,0,72,87.1875,0)">
                    <path d="M0.089,-0.199C0.089,-0.156 0.098,-0.119 0.117,-0.088C0.135,-0.057 0.161,-0.033 0.194,-0.017C0.227,0 0.265,0.008 0.309,0.008C0.336,0.008 0.366,0.003 0.397,-0.008C0.428,-0.018 0.452,-0.033 0.469,-0.051C0.475,-0.058 0.478,-0.065 0.478,-0.072C0.478,-0.079 0.476,-0.084 0.473,-0.087C0.469,-0.09 0.465,-0.092 0.46,-0.092C0.453,-0.092 0.446,-0.089 0.44,-0.084C0.42,-0.065 0.4,-0.052 0.38,-0.044C0.36,-0.036 0.335,-0.032 0.305,-0.032C0.253,-0.032 0.212,-0.046 0.182,-0.074C0.151,-0.102 0.136,-0.144 0.136,-0.199C0.136,-0.232 0.143,-0.26 0.158,-0.283C0.172,-0.307 0.193,-0.325 0.22,-0.338C0.247,-0.351 0.28,-0.357 0.317,-0.357C0.335,-0.357 0.352,-0.355 0.368,-0.352C0.384,-0.349 0.4,-0.343 0.417,-0.335L0.419,-0.315C0.422,-0.286 0.426,-0.266 0.429,-0.254C0.433,-0.242 0.439,-0.236 0.449,-0.236C0.458,-0.236 0.465,-0.24 0.47,-0.247C0.476,-0.254 0.478,-0.264 0.478,-0.275C0.478,-0.317 0.463,-0.348 0.433,-0.368C0.402,-0.387 0.361,-0.397 0.31,-0.397C0.269,-0.397 0.232,-0.389 0.199,-0.373C0.165,-0.357 0.139,-0.334 0.119,-0.304C0.099,-0.274 0.089,-0.239 0.089,-0.199Z" style="fill:rgb(0,0,139);fill-rule:nonzero;"/>
                </g>
                <g transform="matrix(72,0,0,72,130.781,0)">
                    <path d="M0.227,-0.562C0.227,-0.566 0.225,-0.57 0.222,-0.573C0.218,-0.576 0.214,-0.577 0.209,-0.577L0.203,-0.577L0.089,-0.556C0.084,-0.556 0.08,-0.553 0.077,-0.55C0.075,-0.546 0.073,-0.542 0.073,-0.537C0.073,-0.531 0.075,-0.526 0.079,-0.522C0.082,-0.518 0.087,-0.516 0.093,-0.516C0.095,-0.516 0.096,-0.516 0.097,-0.517L0.18,-0.528L0.18,-0.04L0.096,-0.04C0.089,-0.04 0.084,-0.038 0.081,-0.034C0.077,-0.03 0.075,-0.026 0.075,-0.021C0.075,-0.015 0.077,-0.01 0.081,-0.006C0.085,-0.002 0.091,-0 0.098,-0L0.261,-0C0.267,-0 0.272,-0.002 0.275,-0.006C0.279,-0.01 0.28,-0.014 0.28,-0.02C0.28,-0.025 0.279,-0.03 0.275,-0.034C0.272,-0.038 0.267,-0.04 0.261,-0.04L0.227,-0.04L0.227,-0.15L0.288,-0.195L0.434,-0.04L0.38,-0.04C0.373,-0.04 0.368,-0.038 0.364,-0.034C0.36,-0.03 0.358,-0.026 0.358,-0.02C0.358,-0.015 0.36,-0.01 0.363,-0.006C0.367,-0.002 0.372,-0 0.378,-0L0.531,-0C0.537,-0 0.542,-0.002 0.546,-0.006C0.549,-0.01 0.551,-0.014 0.551,-0.02C0.551,-0.025 0.549,-0.03 0.546,-0.034C0.542,-0.038 0.537,-0.04 0.531,-0.04L0.489,-0.04L0.322,-0.218L0.477,-0.338L0.521,-0.338C0.526,-0.338 0.53,-0.34 0.534,-0.344C0.538,-0.347 0.54,-0.351 0.54,-0.356C0.54,-0.362 0.538,-0.368 0.535,-0.372C0.531,-0.376 0.527,-0.378 0.52,-0.378L0.365,-0.378C0.358,-0.378 0.353,-0.376 0.349,-0.372C0.345,-0.368 0.343,-0.363 0.343,-0.358C0.343,-0.352 0.345,-0.348 0.348,-0.344C0.352,-0.34 0.357,-0.338 0.363,-0.338L0.414,-0.338L0.227,-0.195L0.227,-0.562Z" style="fill:rgb(0,0,139);fill-rule:nonzero;"/>
                </g>
            </g>
        </g>
        <g transform="matrix(144,0,0,144,67.2847,77.0005)">
            <path d="M0.289,-0.099C0.294,-0.099 0.299,-0.1 0.302,-0.104C0.306,-0.107 0.308,-0.111 0.308,-0.116C0.308,-0.125 0.303,-0.133 0.292,-0.14L0.131,-0.259L0.288,-0.379C0.296,-0.385 0.3,-0.392 0.3,-0.398C0.3,-0.403 0.298,-0.407 0.294,-0.411C0.29,-0.414 0.286,-0.416 0.28,-0.416C0.276,-0.416 0.271,-0.414 0.266,-0.411L0.103,-0.286C0.09,-0.277 0.084,-0.268 0.084,-0.259C0.084,-0.25 0.09,-0.241 0.103,-0.232L0.271,-0.105C0.276,-0.101 0.283,-0.099 0.289,-0.099ZM0.467,-0.099C0.472,-0.099 0.476,-0.1 0.48,-0.104C0.484,-0.107 0.485,-0.111 0.485,-0.116C0.485,-0.125 0.48,-0.133 0.47,-0.14L0.309,-0.259L0.466,-0.379C0.474,-0.385 0.478,-0.392 0.478,-0.398C0.478,-0.403 0.476,-0.407 0.472,-0.411C0.468,-0.414 0.464,-0.416 0.458,-0.416C0.453,-0.416 0.449,-0.414 0.443,-0.411L0.28,-0.286C0.268,-0.277 0.262,-0.268 0.262,-0.259C0.262,-0.25 0.268,-0.241 0.28,-0.232L0.448,-0.105C0.454,-0.101 0.46,-0.099 0.467,-0.099Z" style="fill:rgb(0,0,139);fill-rule:nonzero;"/>
        </g>
    </g>
</svg>
