<?xml version="1.0" encoding="UTF-8" standalone="no"?>
<!DOCTYPE svg PUBLIC "-//W3C//DTD SVG 1.1//EN" "http://www.w3.org/Graphics/SVG/1.1/DTD/svg11.dtd">
<svg width="100%" height="100%" viewBox="0 0 200 200" version="1.1" xmlns="http://www.w3.org/2000/svg" xmlns:xlink="http://www.w3.org/1999/xlink" xml:space="preserve" xmlns:serif="http://www.serif.com/" style="fill-rule:evenodd;clip-rule:evenodd;stroke-linejoin:round;stroke-miterlimit:2;">
    <g transform="matrix(1,0,0,1,-4.74054,-7.57492)">
        <circle cx="105.873" cy="110.072" r="74.688" style="fill:rgb(242,131,131);"/>
    </g>
    <g transform="matrix(1.09057,0,0,1,-21.195,-3.57484)">
        <g>
            <g transform="matrix(82.5256,0,0,90,33.8347,124.571)">
                <path d="M0.089,-0.199C0.089,-0.156 0.098,-0.119 0.117,-0.088C0.135,-0.057 0.161,-0.033 0.194,-0.017C0.227,0 0.265,0.008 0.309,0.008C0.336,0.008 0.366,0.003 0.397,-0.008C0.428,-0.018 0.452,-0.033 0.469,-0.051C0.475,-0.058 0.478,-0.065 0.478,-0.072C0.478,-0.079 0.476,-0.084 0.473,-0.087C0.469,-0.09 0.465,-0.092 0.46,-0.092C0.453,-0.092 0.446,-0.089 0.44,-0.084C0.42,-0.065 0.4,-0.052 0.38,-0.044C0.36,-0.036 0.335,-0.032 0.305,-0.032C0.253,-0.032 0.212,-0.046 0.182,-0.074C0.151,-0.102 0.136,-0.144 0.136,-0.199C0.136,-0.232 0.143,-0.26 0.158,-0.283C0.172,-0.307 0.193,-0.325 0.22,-0.338C0.247,-0.351 0.28,-0.357 0.317,-0.357C0.335,-0.357 0.352,-0.355 0.368,-0.352C0.384,-0.349 0.4,-0.343 0.417,-0.335L0.419,-0.315C0.422,-0.286 0.426,-0.266 0.429,-0.254C0.433,-0.242 0.439,-0.236 0.449,-0.236C0.458,-0.236 0.465,-0.24 0.47,-0.247C0.476,-0.254 0.478,-0.264 0.478,-0.275C0.478,-0.317 0.463,-0.348 0.433,-0.368C0.402,-0.387 0.361,-0.397 0.31,-0.397C0.269,-0.397 0.232,-0.389 0.199,-0.373C0.165,-0.357 0.139,-0.334 0.119,-0.304C0.099,-0.274 0.089,-0.239 0.089,-0.199Z" style="fill:rgb(0,0,139);fill-rule:nonzero;"/>
            </g>
            <g transform="matrix(82.5256,0,0,90,89.5782,124.571)">
                <path d="M0.397,-0.229L0.362,-0.227C0.309,-0.223 0.267,-0.219 0.235,-0.213C0.204,-0.208 0.177,-0.196 0.156,-0.179C0.134,-0.162 0.124,-0.136 0.124,-0.103C0.124,-0.069 0.134,-0.042 0.154,-0.022C0.175,-0.002 0.203,0.008 0.24,0.008C0.274,0.008 0.305,0.002 0.334,-0.01C0.363,-0.022 0.385,-0.037 0.401,-0.055C0.405,-0.032 0.412,-0.017 0.424,-0.009C0.435,-0.001 0.449,0.003 0.466,0.003C0.48,0.003 0.495,0 0.508,-0.006C0.522,-0.012 0.534,-0.021 0.544,-0.032C0.547,-0.035 0.549,-0.04 0.549,-0.044C0.549,-0.05 0.547,-0.054 0.543,-0.059C0.54,-0.063 0.536,-0.065 0.531,-0.065C0.527,-0.065 0.523,-0.063 0.519,-0.059C0.514,-0.053 0.506,-0.048 0.497,-0.043C0.487,-0.038 0.478,-0.035 0.47,-0.035C0.462,-0.035 0.456,-0.037 0.451,-0.041C0.447,-0.045 0.444,-0.053 0.444,-0.064L0.444,-0.217C0.444,-0.257 0.44,-0.289 0.432,-0.316C0.423,-0.342 0.408,-0.362 0.387,-0.376C0.366,-0.39 0.336,-0.397 0.299,-0.397C0.266,-0.397 0.236,-0.393 0.21,-0.384C0.185,-0.375 0.165,-0.363 0.15,-0.347C0.136,-0.332 0.129,-0.314 0.129,-0.294C0.129,-0.284 0.131,-0.276 0.136,-0.269C0.142,-0.263 0.149,-0.259 0.158,-0.259C0.169,-0.259 0.177,-0.266 0.182,-0.278C0.186,-0.291 0.189,-0.31 0.19,-0.335C0.208,-0.343 0.225,-0.348 0.242,-0.352C0.259,-0.355 0.278,-0.357 0.298,-0.357C0.335,-0.357 0.36,-0.347 0.375,-0.327C0.39,-0.306 0.397,-0.277 0.397,-0.239L0.397,-0.229ZM0.397,-0.092C0.38,-0.074 0.357,-0.059 0.33,-0.048C0.302,-0.037 0.274,-0.032 0.245,-0.032C0.223,-0.032 0.205,-0.037 0.191,-0.049C0.178,-0.06 0.171,-0.078 0.171,-0.103C0.171,-0.125 0.179,-0.143 0.194,-0.154C0.21,-0.166 0.231,-0.174 0.258,-0.179C0.284,-0.184 0.324,-0.189 0.377,-0.194L0.397,-0.196L0.397,-0.092Z" style="fill:rgb(0,0,139);fill-rule:nonzero;"/>
            </g>
            <g transform="matrix(82.5256,0,0,90,145.322,124.571)">
                <path d="M0.428,-0.338C0.434,-0.338 0.439,-0.34 0.442,-0.344C0.446,-0.348 0.447,-0.352 0.447,-0.358C0.447,-0.363 0.446,-0.368 0.442,-0.372C0.439,-0.376 0.434,-0.378 0.428,-0.378L0.247,-0.378L0.247,-0.495C0.247,-0.502 0.245,-0.507 0.243,-0.511C0.241,-0.515 0.236,-0.517 0.229,-0.517C0.22,-0.517 0.213,-0.512 0.209,-0.504C0.205,-0.496 0.202,-0.483 0.201,-0.465C0.2,-0.448 0.2,-0.419 0.2,-0.378L0.128,-0.378C0.121,-0.378 0.116,-0.376 0.113,-0.372C0.109,-0.369 0.107,-0.364 0.107,-0.359C0.107,-0.353 0.109,-0.348 0.113,-0.344C0.117,-0.34 0.123,-0.338 0.13,-0.338L0.2,-0.338L0.2,-0.083C0.2,-0.067 0.205,-0.052 0.217,-0.038C0.229,-0.024 0.244,-0.012 0.263,-0.004C0.283,0.004 0.304,0.008 0.326,0.008C0.347,0.008 0.369,0.006 0.392,0.001C0.414,-0.004 0.433,-0.011 0.45,-0.019C0.467,-0.027 0.479,-0.035 0.485,-0.043C0.487,-0.045 0.488,-0.048 0.488,-0.05C0.488,-0.056 0.486,-0.061 0.481,-0.067C0.476,-0.072 0.472,-0.075 0.467,-0.075C0.465,-0.075 0.463,-0.075 0.462,-0.073C0.446,-0.062 0.426,-0.052 0.402,-0.044C0.377,-0.036 0.353,-0.032 0.331,-0.032C0.306,-0.032 0.285,-0.037 0.27,-0.048C0.254,-0.059 0.247,-0.076 0.247,-0.1L0.247,-0.338L0.428,-0.338Z" style="fill:rgb(0,0,139);fill-rule:nonzero;"/>
            </g>
        </g>
    </g>
</svg>
