<?xml version="1.0" encoding="UTF-8" standalone="no"?>
<!DOCTYPE svg PUBLIC "-//W3C//DTD SVG 1.1//EN" "http://www.w3.org/Graphics/SVG/1.1/DTD/svg11.dtd">
<svg width="100%" height="100%" viewBox="0 0 300 500" version="1.1" xmlns="http://www.w3.org/2000/svg" xmlns:xlink="http://www.w3.org/1999/xlink" xml:space="preserve" xmlns:serif="http://www.serif.com/" style="fill-rule:evenodd;clip-rule:evenodd;stroke-linecap:round;stroke-miterlimit:1.5;">
    <g transform="matrix(0.869304,-0.358675,0.377803,0.915662,15.2924,17.7329)">
        <path d="M75.481,55.781C74.16,26.93 52.823,29.992 52.745,29.884C52.745,29.884 29.94,25.599 30.259,55.781L30.259,488.894C29.489,517.161 55.793,517.324 55.793,517.324C55.758,517.443 77.612,517.165 75.481,488.894L75.481,55.781Z" style="fill:rgb(142,74,11);"/>
        <clipPath id="_clip1">
            <path d="M75.481,55.781C74.16,26.93 52.823,29.992 52.745,29.884C52.745,29.884 29.94,25.599 30.259,55.781L30.259,488.894C29.489,517.161 55.793,517.324 55.793,517.324C55.758,517.443 77.612,517.165 75.481,488.894L75.481,55.781Z"/>
        </clipPath>
        <g clip-path="url(#_clip1)">
            <g transform="matrix(1.05526,0.124553,-0.11203,0.85549,-105.067,22.506)">
                <path d="M145.176,235.188C145.176,235.188 157.921,249.277 176.569,247.393C193.337,245.699 206.944,224.023 206.944,224.023" style="fill:none;stroke:rgb(255,251,187);stroke-width:5.38px;"/>
            </g>
            <g transform="matrix(1.06096,0.0681374,-0.0612869,0.86011,-116.589,43.1577)">
                <path d="M145.176,235.188C145.176,235.188 157.921,249.277 176.569,247.393C193.337,245.699 206.944,224.023 206.944,224.023" style="fill:none;stroke:rgb(255,251,187);stroke-width:5.38px;"/>
            </g>
        </g>
        <path d="M61.019,516.399C58.032,517.359 55.782,517.362 55.793,517.324C55.793,517.324 29.489,517.161 30.259,488.894L30.259,55.781C29.94,25.599 52.745,29.884 52.745,29.884C52.823,29.992 74.16,26.93 75.481,55.781L75.481,488.894C76.925,508.048 67.36,514.352 61.05,516.389C60.919,515.708 60.615,515.032 60.101,514.369C60.567,514.98 60.877,515.674 61.019,516.399ZM70.164,55.906C69.755,47.273 67.451,41.989 64.335,38.862C60.288,34.8 55.142,34.83 53.616,34.899C52.81,34.935 52.106,34.852 51.497,34.701L51.713,34.836C51.713,34.836 46.013,33.787 41.495,37.46C37.949,40.345 35.471,45.848 35.575,55.731C35.576,55.747 35.576,55.764 35.576,55.781L35.576,488.894L35.574,489.025C35.382,496.076 37.072,501.059 39.734,504.53C45.635,512.229 55.828,512.276 55.828,512.276L56.063,512.284L56.054,512.283C56.054,512.283 62.735,511.392 66.337,506.811C69.104,503.291 70.82,497.765 70.178,489.255C70.169,489.135 70.164,489.015 70.164,488.894L70.164,55.906ZM57.662,512.599C58.576,512.924 59.389,513.486 59.999,514.238L59.981,514.215C59.632,513.791 58.977,513.052 57.662,512.599ZM57.556,512.562L57.501,512.545L57.586,512.573L57.556,512.562Z" style="fill:rgb(142,74,11);"/>
    </g>
    <g transform="matrix(0.770001,-0.317702,0.164481,0.398644,28.9618,36.7348)">
        <path d="M75.481,55.781C72.216,27.863 64.945,24.264 58.631,21.353C55.163,19.755 52.544,19.751 52.516,19.713C52.516,19.713 33.552,15.94 30.259,55.781L30.259,488.894C31.494,518.886 55.47,520.378 55.47,520.378C55.435,520.498 76.289,519.415 75.481,488.894L75.481,55.781Z" style="fill:rgb(225,204,64);stroke:rgb(142,74,11);stroke-width:7.54px;stroke-linejoin:round;"/>
    </g>
</svg>
