<?xml version="1.0" encoding="UTF-8" standalone="no"?>
<!DOCTYPE svg PUBLIC "-//W3C//DTD SVG 1.1//EN" "http://www.w3.org/Graphics/SVG/1.1/DTD/svg11.dtd">
<svg width="100%" height="100%" viewBox="0 0 200 200" version="1.1" xmlns="http://www.w3.org/2000/svg" xmlns:xlink="http://www.w3.org/1999/xlink" xml:space="preserve" xmlns:serif="http://www.serif.com/" style="fill-rule:evenodd;clip-rule:evenodd;stroke-linejoin:round;stroke-miterlimit:2;">
    <g transform="matrix(1,0,0,1,-4.74054,-7.57492)">
        <circle cx="105.873" cy="110.072" r="74.688" style="fill:rgb(230,184,0);"/>
    </g>
    <g transform="matrix(1.13431,0,0,1,-30.0563,-3.57484)">
        <g>
            <g transform="matrix(79.3432,0,0,90,26.8129,124.571)">
                <path d="M0.45,0.001L0.541,-0.008C0.546,-0.01 0.551,-0.012 0.554,-0.016C0.557,-0.02 0.559,-0.025 0.559,-0.03C0.559,-0.035 0.557,-0.039 0.554,-0.042C0.551,-0.045 0.546,-0.047 0.54,-0.047L0.537,-0.047L0.464,-0.042L0.464,-0.557C0.464,-0.57 0.458,-0.576 0.444,-0.576L0.342,-0.566C0.337,-0.565 0.333,-0.563 0.33,-0.559C0.327,-0.555 0.326,-0.55 0.326,-0.546C0.326,-0.541 0.328,-0.536 0.332,-0.533C0.335,-0.529 0.34,-0.527 0.345,-0.527C0.347,-0.527 0.349,-0.528 0.351,-0.528C0.352,-0.528 0.354,-0.528 0.355,-0.529L0.417,-0.533L0.417,-0.345C0.398,-0.362 0.377,-0.375 0.356,-0.384C0.334,-0.393 0.308,-0.397 0.279,-0.397C0.241,-0.397 0.209,-0.388 0.181,-0.371C0.153,-0.353 0.132,-0.329 0.117,-0.299C0.102,-0.268 0.094,-0.233 0.094,-0.194C0.094,-0.155 0.102,-0.12 0.117,-0.089C0.132,-0.059 0.153,-0.035 0.181,-0.018C0.209,-0 0.241,0.008 0.279,0.008C0.309,0.008 0.336,0.003 0.362,-0.009C0.387,-0.02 0.407,-0.034 0.422,-0.052L0.423,-0.023C0.424,-0.015 0.426,-0.009 0.43,-0.005C0.434,-0.001 0.44,0.001 0.446,0.001L0.45,0.001ZM0.282,-0.357C0.339,-0.357 0.384,-0.336 0.417,-0.294L0.417,-0.103C0.385,-0.055 0.339,-0.032 0.28,-0.032C0.25,-0.032 0.225,-0.039 0.205,-0.054C0.184,-0.068 0.168,-0.088 0.157,-0.113C0.146,-0.138 0.141,-0.165 0.141,-0.194C0.141,-0.224 0.146,-0.251 0.157,-0.276C0.168,-0.301 0.184,-0.32 0.205,-0.335C0.226,-0.35 0.252,-0.357 0.282,-0.357Z" style="fill:rgb(0,0,139);fill-rule:nonzero;"/>
            </g>
            <g transform="matrix(79.3432,0,0,90,69.2987,124.571)">
                <path d="M0.449,-0.298C0.449,-0.29 0.451,-0.284 0.456,-0.28C0.461,-0.275 0.466,-0.273 0.472,-0.273C0.479,-0.273 0.484,-0.275 0.489,-0.28C0.494,-0.285 0.496,-0.292 0.496,-0.3L0.496,-0.368C0.496,-0.377 0.493,-0.385 0.486,-0.39C0.48,-0.395 0.469,-0.397 0.453,-0.397C0.363,-0.397 0.299,-0.368 0.262,-0.312L0.26,-0.362C0.259,-0.371 0.258,-0.378 0.256,-0.383C0.253,-0.387 0.248,-0.39 0.241,-0.39C0.238,-0.39 0.234,-0.389 0.23,-0.388L0.146,-0.372C0.142,-0.371 0.138,-0.368 0.136,-0.365C0.133,-0.362 0.132,-0.358 0.132,-0.353C0.132,-0.348 0.134,-0.343 0.137,-0.339C0.14,-0.335 0.145,-0.333 0.151,-0.333C0.154,-0.333 0.156,-0.334 0.157,-0.334L0.217,-0.346L0.217,-0.04L0.127,-0.04C0.121,-0.04 0.116,-0.038 0.112,-0.034C0.109,-0.03 0.107,-0.026 0.107,-0.021C0.107,-0.015 0.109,-0.01 0.113,-0.006C0.117,-0.002 0.122,-0 0.129,-0L0.427,-0C0.433,-0 0.438,-0.002 0.442,-0.006C0.445,-0.01 0.447,-0.015 0.447,-0.02C0.447,-0.026 0.446,-0.03 0.442,-0.034C0.439,-0.038 0.434,-0.04 0.428,-0.04L0.264,-0.04L0.264,-0.257C0.277,-0.289 0.3,-0.314 0.333,-0.331C0.367,-0.348 0.406,-0.357 0.449,-0.357L0.449,-0.298Z" style="fill:rgb(0,0,139);fill-rule:nonzero;"/>
            </g>
            <g transform="matrix(79.3432,0,0,90,109.404,124.571)">
                <path d="M0.179,-0.375C0.179,-0.38 0.177,-0.383 0.174,-0.387C0.171,-0.39 0.167,-0.392 0.162,-0.392C0.161,-0.392 0.159,-0.391 0.156,-0.391L0.071,-0.374C0.065,-0.372 0.061,-0.37 0.058,-0.367C0.055,-0.363 0.053,-0.36 0.053,-0.355C0.053,-0.349 0.055,-0.345 0.06,-0.34C0.064,-0.336 0.069,-0.334 0.076,-0.334C0.079,-0.334 0.082,-0.334 0.084,-0.335L0.132,-0.345L0.132,-0.128C0.132,-0.101 0.137,-0.077 0.149,-0.057C0.16,-0.036 0.176,-0.02 0.198,-0.009C0.219,0.003 0.245,0.008 0.274,0.008C0.305,0.008 0.334,0.001 0.362,-0.013C0.391,-0.027 0.412,-0.044 0.426,-0.065L0.429,-0.023C0.429,-0.015 0.431,-0.009 0.436,-0.005C0.44,-0.001 0.445,0.001 0.452,0.001L0.455,0.001L0.546,-0.008C0.552,-0.01 0.556,-0.012 0.56,-0.016C0.563,-0.02 0.564,-0.025 0.564,-0.03C0.564,-0.035 0.563,-0.039 0.56,-0.042C0.556,-0.045 0.551,-0.047 0.545,-0.047L0.542,-0.047L0.47,-0.042L0.47,-0.375C0.47,-0.38 0.468,-0.383 0.465,-0.387C0.462,-0.39 0.458,-0.392 0.453,-0.392C0.452,-0.392 0.45,-0.391 0.447,-0.391L0.362,-0.374C0.356,-0.372 0.351,-0.37 0.348,-0.366C0.345,-0.363 0.344,-0.359 0.344,-0.354C0.344,-0.349 0.346,-0.344 0.35,-0.34C0.354,-0.336 0.36,-0.333 0.367,-0.333C0.37,-0.333 0.373,-0.334 0.375,-0.335L0.423,-0.345L0.423,-0.113C0.416,-0.098 0.404,-0.084 0.388,-0.072C0.372,-0.059 0.354,-0.05 0.333,-0.042C0.313,-0.035 0.294,-0.032 0.274,-0.032C0.243,-0.032 0.219,-0.04 0.203,-0.058C0.187,-0.075 0.179,-0.098 0.179,-0.126L0.179,-0.375Z" style="fill:rgb(0,0,139);fill-rule:nonzero;"/>
            </g>
            <g transform="matrix(79.3432,0,0,90,154.27,124.571)">
                <path d="M0.289,-0.021C0.289,-0.015 0.291,-0.011 0.294,-0.006C0.298,-0.002 0.304,-0 0.311,-0L0.392,-0C0.399,-0 0.404,-0.002 0.407,-0.006C0.411,-0.01 0.413,-0.015 0.413,-0.021C0.413,-0.026 0.411,-0.03 0.407,-0.034C0.404,-0.038 0.399,-0.04 0.393,-0.04L0.335,-0.04L0.335,-0.249C0.336,-0.267 0.34,-0.284 0.349,-0.301C0.358,-0.318 0.37,-0.331 0.384,-0.342C0.398,-0.352 0.412,-0.357 0.426,-0.357C0.441,-0.357 0.453,-0.35 0.462,-0.335C0.47,-0.32 0.474,-0.296 0.474,-0.264L0.474,-0.021C0.474,-0.015 0.476,-0.011 0.48,-0.006C0.484,-0.002 0.489,-0 0.497,-0L0.573,-0C0.58,-0 0.585,-0.002 0.588,-0.006C0.592,-0.01 0.594,-0.015 0.594,-0.021C0.594,-0.026 0.592,-0.03 0.589,-0.034C0.585,-0.038 0.58,-0.04 0.574,-0.04L0.521,-0.04L0.521,-0.26C0.521,-0.29 0.517,-0.315 0.509,-0.336C0.501,-0.356 0.49,-0.372 0.476,-0.382C0.462,-0.392 0.446,-0.397 0.429,-0.397C0.408,-0.397 0.389,-0.39 0.371,-0.377C0.354,-0.364 0.339,-0.344 0.328,-0.319C0.32,-0.345 0.309,-0.364 0.294,-0.377C0.279,-0.39 0.261,-0.397 0.242,-0.397C0.221,-0.397 0.203,-0.39 0.187,-0.375C0.17,-0.36 0.157,-0.339 0.148,-0.312L0.146,-0.371C0.145,-0.383 0.139,-0.39 0.126,-0.39C0.125,-0.39 0.122,-0.389 0.118,-0.389L0.038,-0.373C0.032,-0.371 0.028,-0.369 0.025,-0.365C0.023,-0.361 0.021,-0.357 0.021,-0.353C0.021,-0.347 0.023,-0.343 0.027,-0.339C0.03,-0.336 0.035,-0.334 0.041,-0.334C0.044,-0.334 0.047,-0.334 0.05,-0.335L0.103,-0.346L0.103,-0.04L0.05,-0.04C0.044,-0.04 0.039,-0.038 0.035,-0.034C0.032,-0.031 0.03,-0.026 0.03,-0.021C0.03,-0.015 0.032,-0.011 0.036,-0.006C0.04,-0.002 0.045,-0 0.052,-0L0.19,-0C0.198,-0 0.204,-0.002 0.208,-0.006C0.213,-0.01 0.215,-0.015 0.215,-0.021C0.215,-0.026 0.213,-0.03 0.209,-0.034C0.205,-0.038 0.199,-0.04 0.191,-0.04L0.15,-0.04L0.15,-0.246C0.151,-0.264 0.155,-0.282 0.164,-0.3C0.172,-0.317 0.183,-0.33 0.197,-0.341C0.21,-0.352 0.223,-0.357 0.237,-0.357C0.253,-0.357 0.265,-0.349 0.275,-0.334C0.284,-0.319 0.289,-0.296 0.289,-0.264L0.289,-0.021Z" style="fill:rgb(0,0,139);fill-rule:nonzero;"/>
            </g>
        </g>
    </g>
</svg>
