<?xml version="1.0" encoding="UTF-8" standalone="no"?>
<!DOCTYPE svg PUBLIC "-//W3C//DTD SVG 1.1//EN" "http://www.w3.org/Graphics/SVG/1.1/DTD/svg11.dtd">
<svg width="100%" height="100%" viewBox="0 0 400 200" version="1.1" xmlns="http://www.w3.org/2000/svg" xmlns:xlink="http://www.w3.org/1999/xlink" xml:space="preserve" xmlns:serif="http://www.serif.com/" style="fill-rule:evenodd;clip-rule:evenodd;stroke-linejoin:round;stroke-miterlimit:2;">
    <g transform="matrix(1,0,0,1.08017,5.89782,-7.27184)">
        <path d="M381.372,99.549C381.372,60.111 346.787,28.092 304.187,28.092L91.887,28.092C49.288,28.092 14.702,60.111 14.702,99.549C14.702,138.987 49.288,171.005 91.887,171.005L304.187,171.005C346.787,171.005 381.372,138.987 381.372,99.549Z" style="fill:rgb(242,131,131);"/>
    </g>
    <g transform="matrix(2.27692,0,0,1,-60.3946,-21.3393)">
        <g>
            <g transform="matrix(26.3514,0,0,60,46.1303,107.256)">
                <path d="M0.428,-0.338C0.434,-0.338 0.439,-0.34 0.442,-0.344C0.446,-0.348 0.447,-0.352 0.447,-0.358C0.447,-0.363 0.446,-0.368 0.442,-0.372C0.439,-0.376 0.434,-0.378 0.428,-0.378L0.247,-0.378L0.247,-0.495C0.247,-0.502 0.245,-0.507 0.243,-0.511C0.241,-0.515 0.236,-0.517 0.229,-0.517C0.22,-0.517 0.213,-0.512 0.209,-0.504C0.205,-0.496 0.202,-0.483 0.201,-0.465C0.2,-0.448 0.2,-0.419 0.2,-0.378L0.128,-0.378C0.121,-0.378 0.116,-0.376 0.113,-0.372C0.109,-0.369 0.107,-0.364 0.107,-0.359C0.107,-0.353 0.109,-0.348 0.113,-0.344C0.117,-0.34 0.123,-0.338 0.13,-0.338L0.2,-0.338L0.2,-0.083C0.2,-0.067 0.205,-0.052 0.217,-0.038C0.229,-0.024 0.244,-0.012 0.263,-0.004C0.283,0.004 0.304,0.008 0.326,0.008C0.347,0.008 0.369,0.006 0.392,0.001C0.414,-0.004 0.433,-0.011 0.45,-0.019C0.467,-0.027 0.479,-0.035 0.485,-0.043C0.487,-0.045 0.488,-0.048 0.488,-0.05C0.488,-0.056 0.486,-0.061 0.481,-0.067C0.476,-0.072 0.472,-0.075 0.467,-0.075C0.465,-0.075 0.463,-0.075 0.462,-0.073C0.446,-0.062 0.426,-0.052 0.402,-0.044C0.377,-0.036 0.353,-0.032 0.331,-0.032C0.306,-0.032 0.285,-0.037 0.27,-0.048C0.254,-0.059 0.247,-0.076 0.247,-0.1L0.247,-0.338L0.428,-0.338Z" style="fill:rgb(0,0,139);fill-rule:nonzero;"/>
            </g>
            <g transform="matrix(26.3514,0,0,60,63.4028,107.256)">
                <path d="M0.25,-0.378C0.235,-0.378 0.227,-0.371 0.227,-0.358C0.227,-0.345 0.234,-0.338 0.248,-0.338L0.272,-0.338L0.296,-0.271L0.214,-0.045L0.125,-0.338L0.15,-0.338C0.163,-0.338 0.169,-0.344 0.169,-0.357C0.169,-0.371 0.163,-0.378 0.15,-0.378L0.035,-0.378C0.02,-0.378 0.013,-0.371 0.013,-0.358C0.013,-0.345 0.02,-0.338 0.033,-0.338L0.071,-0.338L0.173,-0.029C0.178,-0.014 0.184,-0.004 0.19,0C0.197,0.005 0.204,0.007 0.212,0.007C0.22,0.007 0.227,0.005 0.232,0.001C0.237,-0.003 0.242,-0.012 0.248,-0.026L0.318,-0.211L0.384,-0.029C0.389,-0.014 0.395,-0.005 0.401,-0C0.408,0.005 0.415,0.007 0.423,0.007C0.431,0.007 0.438,0.005 0.443,0C0.449,-0.004 0.454,-0.013 0.458,-0.026L0.552,-0.338L0.585,-0.338C0.599,-0.338 0.606,-0.345 0.606,-0.358C0.606,-0.371 0.598,-0.378 0.583,-0.378L0.476,-0.378C0.463,-0.378 0.456,-0.371 0.456,-0.357C0.456,-0.344 0.462,-0.338 0.475,-0.338L0.507,-0.338L0.424,-0.045L0.321,-0.338L0.374,-0.338C0.386,-0.338 0.393,-0.344 0.393,-0.357C0.393,-0.371 0.386,-0.378 0.374,-0.378L0.25,-0.378Z" style="fill:rgb(0,0,139);fill-rule:nonzero;"/>
            </g>
            <g transform="matrix(26.3514,0,0,60,80.6753,107.256)">
                <path d="M0.096,-0.194C0.096,-0.154 0.104,-0.118 0.122,-0.087C0.139,-0.057 0.163,-0.033 0.194,-0.017C0.226,0 0.262,0.008 0.303,0.008C0.344,0.008 0.38,0 0.411,-0.017C0.442,-0.033 0.467,-0.057 0.484,-0.087C0.501,-0.118 0.51,-0.154 0.51,-0.194C0.51,-0.235 0.501,-0.271 0.484,-0.302C0.467,-0.332 0.442,-0.356 0.411,-0.372C0.38,-0.389 0.344,-0.397 0.303,-0.397C0.262,-0.397 0.226,-0.389 0.194,-0.372C0.163,-0.356 0.139,-0.332 0.122,-0.302C0.104,-0.271 0.096,-0.235 0.096,-0.194ZM0.148,-0.194C0.148,-0.226 0.155,-0.254 0.167,-0.279C0.179,-0.303 0.197,-0.322 0.22,-0.336C0.243,-0.35 0.271,-0.357 0.303,-0.357C0.335,-0.357 0.362,-0.35 0.385,-0.336C0.409,-0.322 0.427,-0.303 0.439,-0.279C0.451,-0.254 0.457,-0.226 0.457,-0.194C0.457,-0.162 0.451,-0.134 0.439,-0.11C0.427,-0.085 0.409,-0.066 0.385,-0.052C0.362,-0.039 0.335,-0.032 0.303,-0.032C0.271,-0.032 0.243,-0.039 0.22,-0.052C0.197,-0.066 0.179,-0.085 0.167,-0.11C0.155,-0.134 0.148,-0.162 0.148,-0.194Z" style="fill:rgb(0,0,139);fill-rule:nonzero;"/>
            </g>
            <g transform="matrix(26.3514,0,0,60,115.22,107.256)">
                <path d="M0.289,-0.021C0.289,-0.015 0.291,-0.011 0.294,-0.006C0.298,-0.002 0.304,-0 0.311,-0L0.392,-0C0.399,-0 0.404,-0.002 0.407,-0.006C0.411,-0.01 0.413,-0.015 0.413,-0.021C0.413,-0.026 0.411,-0.03 0.407,-0.034C0.404,-0.038 0.399,-0.04 0.393,-0.04L0.335,-0.04L0.335,-0.249C0.336,-0.267 0.34,-0.284 0.349,-0.301C0.358,-0.318 0.37,-0.331 0.384,-0.342C0.398,-0.352 0.412,-0.357 0.426,-0.357C0.441,-0.357 0.453,-0.35 0.462,-0.335C0.47,-0.32 0.474,-0.296 0.474,-0.264L0.474,-0.021C0.474,-0.015 0.476,-0.011 0.48,-0.006C0.484,-0.002 0.489,-0 0.497,-0L0.573,-0C0.58,-0 0.585,-0.002 0.588,-0.006C0.592,-0.01 0.594,-0.015 0.594,-0.021C0.594,-0.026 0.592,-0.03 0.589,-0.034C0.585,-0.038 0.58,-0.04 0.574,-0.04L0.521,-0.04L0.521,-0.26C0.521,-0.29 0.517,-0.315 0.509,-0.336C0.501,-0.356 0.49,-0.372 0.476,-0.382C0.462,-0.392 0.446,-0.397 0.429,-0.397C0.408,-0.397 0.389,-0.39 0.371,-0.377C0.354,-0.364 0.339,-0.344 0.328,-0.319C0.32,-0.345 0.309,-0.364 0.294,-0.377C0.279,-0.39 0.261,-0.397 0.242,-0.397C0.221,-0.397 0.203,-0.39 0.187,-0.375C0.17,-0.36 0.157,-0.339 0.148,-0.312L0.146,-0.371C0.145,-0.383 0.139,-0.39 0.126,-0.39C0.125,-0.39 0.122,-0.389 0.118,-0.389L0.038,-0.373C0.032,-0.371 0.028,-0.369 0.025,-0.365C0.023,-0.361 0.021,-0.357 0.021,-0.353C0.021,-0.347 0.023,-0.343 0.027,-0.339C0.03,-0.336 0.035,-0.334 0.041,-0.334C0.044,-0.334 0.047,-0.334 0.05,-0.335L0.103,-0.346L0.103,-0.04L0.05,-0.04C0.044,-0.04 0.039,-0.038 0.035,-0.034C0.032,-0.031 0.03,-0.026 0.03,-0.021C0.03,-0.015 0.032,-0.011 0.036,-0.006C0.04,-0.002 0.045,-0 0.052,-0L0.19,-0C0.198,-0 0.204,-0.002 0.208,-0.006C0.213,-0.01 0.215,-0.015 0.215,-0.021C0.215,-0.026 0.213,-0.03 0.209,-0.034C0.205,-0.038 0.199,-0.04 0.191,-0.04L0.15,-0.04L0.15,-0.246C0.151,-0.264 0.155,-0.282 0.164,-0.3C0.172,-0.317 0.183,-0.33 0.197,-0.341C0.21,-0.352 0.223,-0.357 0.237,-0.357C0.253,-0.357 0.265,-0.349 0.275,-0.334C0.284,-0.319 0.289,-0.296 0.289,-0.264L0.289,-0.021Z" style="fill:rgb(0,0,139);fill-rule:nonzero;"/>
            </g>
            <g transform="matrix(26.3514,0,0,60,132.493,107.256)">
                <path d="M0.096,-0.194C0.096,-0.154 0.104,-0.118 0.122,-0.087C0.139,-0.057 0.163,-0.033 0.194,-0.017C0.226,0 0.262,0.008 0.303,0.008C0.344,0.008 0.38,0 0.411,-0.017C0.442,-0.033 0.467,-0.057 0.484,-0.087C0.501,-0.118 0.51,-0.154 0.51,-0.194C0.51,-0.235 0.501,-0.271 0.484,-0.302C0.467,-0.332 0.442,-0.356 0.411,-0.372C0.38,-0.389 0.344,-0.397 0.303,-0.397C0.262,-0.397 0.226,-0.389 0.194,-0.372C0.163,-0.356 0.139,-0.332 0.122,-0.302C0.104,-0.271 0.096,-0.235 0.096,-0.194ZM0.148,-0.194C0.148,-0.226 0.155,-0.254 0.167,-0.279C0.179,-0.303 0.197,-0.322 0.22,-0.336C0.243,-0.35 0.271,-0.357 0.303,-0.357C0.335,-0.357 0.362,-0.35 0.385,-0.336C0.409,-0.322 0.427,-0.303 0.439,-0.279C0.451,-0.254 0.457,-0.226 0.457,-0.194C0.457,-0.162 0.451,-0.134 0.439,-0.11C0.427,-0.085 0.409,-0.066 0.385,-0.052C0.362,-0.039 0.335,-0.032 0.303,-0.032C0.271,-0.032 0.243,-0.039 0.22,-0.052C0.197,-0.066 0.179,-0.085 0.167,-0.11C0.155,-0.134 0.148,-0.162 0.148,-0.194Z" style="fill:rgb(0,0,139);fill-rule:nonzero;"/>
            </g>
            <g transform="matrix(26.3514,0,0,60,149.765,107.256)">
                <path d="M0.449,-0.298C0.449,-0.29 0.451,-0.284 0.456,-0.28C0.461,-0.275 0.466,-0.273 0.472,-0.273C0.479,-0.273 0.484,-0.275 0.489,-0.28C0.494,-0.285 0.496,-0.292 0.496,-0.3L0.496,-0.368C0.496,-0.377 0.493,-0.385 0.486,-0.39C0.48,-0.395 0.469,-0.397 0.453,-0.397C0.363,-0.397 0.299,-0.368 0.262,-0.312L0.26,-0.362C0.259,-0.371 0.258,-0.378 0.256,-0.383C0.253,-0.387 0.248,-0.39 0.241,-0.39C0.238,-0.39 0.234,-0.389 0.23,-0.388L0.146,-0.372C0.142,-0.371 0.138,-0.368 0.136,-0.365C0.133,-0.362 0.132,-0.358 0.132,-0.353C0.132,-0.348 0.134,-0.343 0.137,-0.339C0.14,-0.335 0.145,-0.333 0.151,-0.333C0.154,-0.333 0.156,-0.334 0.157,-0.334L0.217,-0.346L0.217,-0.04L0.127,-0.04C0.121,-0.04 0.116,-0.038 0.112,-0.034C0.109,-0.03 0.107,-0.026 0.107,-0.021C0.107,-0.015 0.109,-0.01 0.113,-0.006C0.117,-0.002 0.122,-0 0.129,-0L0.427,-0C0.433,-0 0.438,-0.002 0.442,-0.006C0.445,-0.01 0.447,-0.015 0.447,-0.02C0.447,-0.026 0.446,-0.03 0.442,-0.034C0.439,-0.038 0.434,-0.04 0.428,-0.04L0.264,-0.04L0.264,-0.257C0.277,-0.289 0.3,-0.314 0.333,-0.331C0.367,-0.348 0.406,-0.357 0.449,-0.357L0.449,-0.298Z" style="fill:rgb(0,0,139);fill-rule:nonzero;"/>
            </g>
            <g transform="matrix(26.3514,0,0,60,167.038,107.256)">
                <path d="M0.104,-0.199C0.104,-0.156 0.113,-0.119 0.131,-0.088C0.15,-0.057 0.176,-0.033 0.209,-0.017C0.243,0 0.281,0.008 0.325,0.008C0.352,0.008 0.382,0.003 0.414,-0.008C0.446,-0.019 0.47,-0.033 0.487,-0.051C0.493,-0.058 0.496,-0.065 0.496,-0.072C0.496,-0.078 0.494,-0.083 0.49,-0.087C0.487,-0.091 0.482,-0.093 0.476,-0.093C0.47,-0.093 0.463,-0.09 0.456,-0.085C0.438,-0.067 0.416,-0.054 0.393,-0.045C0.369,-0.036 0.345,-0.032 0.321,-0.032C0.271,-0.032 0.23,-0.045 0.199,-0.072C0.168,-0.098 0.152,-0.138 0.15,-0.189L0.458,-0.191C0.469,-0.191 0.478,-0.195 0.485,-0.203C0.492,-0.211 0.495,-0.222 0.495,-0.234C0.495,-0.269 0.488,-0.298 0.472,-0.323C0.457,-0.347 0.436,-0.366 0.41,-0.378C0.383,-0.391 0.353,-0.397 0.319,-0.397C0.28,-0.397 0.243,-0.389 0.211,-0.373C0.178,-0.357 0.152,-0.334 0.133,-0.304C0.113,-0.274 0.104,-0.239 0.104,-0.199ZM0.32,-0.357C0.371,-0.357 0.405,-0.344 0.423,-0.318C0.441,-0.293 0.451,-0.262 0.454,-0.227L0.152,-0.225C0.158,-0.267 0.175,-0.299 0.205,-0.322C0.234,-0.345 0.273,-0.357 0.32,-0.357Z" style="fill:rgb(0,0,139);fill-rule:nonzero;"/>
            </g>
            <g transform="matrix(26.3514,0,0,60,47.4479,155.256)">
                <path d="M0.289,-0.021C0.289,-0.015 0.291,-0.011 0.294,-0.006C0.298,-0.002 0.304,-0 0.311,-0L0.392,-0C0.399,-0 0.404,-0.002 0.407,-0.006C0.411,-0.01 0.413,-0.015 0.413,-0.021C0.413,-0.026 0.411,-0.03 0.407,-0.034C0.404,-0.038 0.399,-0.04 0.393,-0.04L0.335,-0.04L0.335,-0.249C0.336,-0.267 0.34,-0.284 0.349,-0.301C0.358,-0.318 0.37,-0.331 0.384,-0.342C0.398,-0.352 0.412,-0.357 0.426,-0.357C0.441,-0.357 0.453,-0.35 0.462,-0.335C0.47,-0.32 0.474,-0.296 0.474,-0.264L0.474,-0.021C0.474,-0.015 0.476,-0.011 0.48,-0.006C0.484,-0.002 0.489,-0 0.497,-0L0.573,-0C0.58,-0 0.585,-0.002 0.588,-0.006C0.592,-0.01 0.594,-0.015 0.594,-0.021C0.594,-0.026 0.592,-0.03 0.589,-0.034C0.585,-0.038 0.58,-0.04 0.574,-0.04L0.521,-0.04L0.521,-0.26C0.521,-0.29 0.517,-0.315 0.509,-0.336C0.501,-0.356 0.49,-0.372 0.476,-0.382C0.462,-0.392 0.446,-0.397 0.429,-0.397C0.408,-0.397 0.389,-0.39 0.371,-0.377C0.354,-0.364 0.339,-0.344 0.328,-0.319C0.32,-0.345 0.309,-0.364 0.294,-0.377C0.279,-0.39 0.261,-0.397 0.242,-0.397C0.221,-0.397 0.203,-0.39 0.187,-0.375C0.17,-0.36 0.157,-0.339 0.148,-0.312L0.146,-0.371C0.145,-0.383 0.139,-0.39 0.126,-0.39C0.125,-0.39 0.122,-0.389 0.118,-0.389L0.038,-0.373C0.032,-0.371 0.028,-0.369 0.025,-0.365C0.023,-0.361 0.021,-0.357 0.021,-0.353C0.021,-0.347 0.023,-0.343 0.027,-0.339C0.03,-0.336 0.035,-0.334 0.041,-0.334C0.044,-0.334 0.047,-0.334 0.05,-0.335L0.103,-0.346L0.103,-0.04L0.05,-0.04C0.044,-0.04 0.039,-0.038 0.035,-0.034C0.032,-0.031 0.03,-0.026 0.03,-0.021C0.03,-0.015 0.032,-0.011 0.036,-0.006C0.04,-0.002 0.045,-0 0.052,-0L0.19,-0C0.198,-0 0.204,-0.002 0.208,-0.006C0.213,-0.01 0.215,-0.015 0.215,-0.021C0.215,-0.026 0.213,-0.03 0.209,-0.034C0.205,-0.038 0.199,-0.04 0.191,-0.04L0.15,-0.04L0.15,-0.246C0.151,-0.264 0.155,-0.282 0.164,-0.3C0.172,-0.317 0.183,-0.33 0.197,-0.341C0.21,-0.352 0.223,-0.357 0.237,-0.357C0.253,-0.357 0.265,-0.349 0.275,-0.334C0.284,-0.319 0.289,-0.296 0.289,-0.264L0.289,-0.021Z" style="fill:rgb(0,0,139);fill-rule:nonzero;"/>
            </g>
            <g transform="matrix(26.3514,0,0,60,64.7204,155.256)">
                <path d="M0.297,-0.531C0.297,-0.52 0.301,-0.511 0.309,-0.503C0.317,-0.495 0.326,-0.491 0.338,-0.491C0.349,-0.491 0.359,-0.495 0.366,-0.503C0.374,-0.511 0.378,-0.52 0.378,-0.531C0.378,-0.543 0.374,-0.552 0.366,-0.56C0.358,-0.568 0.349,-0.572 0.338,-0.572C0.327,-0.572 0.317,-0.568 0.309,-0.56C0.301,-0.552 0.297,-0.543 0.297,-0.531ZM0.533,-0C0.539,-0 0.544,-0.002 0.547,-0.006C0.551,-0.01 0.553,-0.014 0.553,-0.02C0.553,-0.025 0.551,-0.03 0.548,-0.034C0.544,-0.038 0.539,-0.04 0.533,-0.04L0.371,-0.04L0.371,-0.38C0.371,-0.385 0.369,-0.389 0.366,-0.392C0.362,-0.395 0.358,-0.396 0.353,-0.396C0.35,-0.396 0.349,-0.396 0.348,-0.396L0.153,-0.369C0.148,-0.368 0.144,-0.366 0.142,-0.362C0.139,-0.358 0.138,-0.354 0.138,-0.349C0.138,-0.344 0.139,-0.339 0.143,-0.335C0.147,-0.331 0.152,-0.329 0.158,-0.329L0.161,-0.329L0.324,-0.351L0.324,-0.04L0.142,-0.04C0.136,-0.04 0.131,-0.038 0.127,-0.034C0.123,-0.031 0.122,-0.026 0.122,-0.021C0.122,-0.015 0.124,-0.011 0.127,-0.006C0.131,-0.002 0.137,-0 0.144,-0L0.533,-0Z" style="fill:rgb(0,0,139);fill-rule:nonzero;"/>
            </g>
            <g transform="matrix(26.3514,0,0,60,81.9929,155.256)">
                <path d="M0.437,-0.04L0.365,-0.04C0.359,-0.04 0.354,-0.038 0.35,-0.034C0.347,-0.031 0.345,-0.026 0.345,-0.021C0.345,-0.015 0.347,-0.011 0.351,-0.006C0.354,-0.002 0.36,-0 0.367,-0L0.536,-0C0.542,-0 0.547,-0.002 0.551,-0.006C0.554,-0.01 0.556,-0.015 0.556,-0.021C0.556,-0.026 0.554,-0.03 0.551,-0.034C0.548,-0.038 0.543,-0.04 0.537,-0.04L0.483,-0.04L0.483,-0.26C0.483,-0.304 0.472,-0.338 0.449,-0.361C0.426,-0.385 0.392,-0.397 0.346,-0.397C0.324,-0.397 0.303,-0.393 0.282,-0.386C0.261,-0.378 0.243,-0.368 0.227,-0.355C0.211,-0.342 0.199,-0.328 0.19,-0.312L0.188,-0.371C0.187,-0.383 0.181,-0.39 0.169,-0.39C0.168,-0.39 0.165,-0.389 0.16,-0.389L0.08,-0.373C0.075,-0.371 0.07,-0.369 0.068,-0.365C0.065,-0.361 0.064,-0.357 0.064,-0.353C0.064,-0.347 0.066,-0.343 0.069,-0.339C0.073,-0.336 0.077,-0.334 0.083,-0.334C0.086,-0.334 0.09,-0.334 0.093,-0.335L0.146,-0.346L0.146,-0.04L0.093,-0.04C0.086,-0.04 0.081,-0.038 0.078,-0.034C0.074,-0.031 0.072,-0.026 0.072,-0.021C0.072,-0.015 0.074,-0.011 0.078,-0.006C0.082,-0.002 0.088,-0 0.095,-0L0.243,-0C0.25,-0 0.256,-0.002 0.26,-0.006C0.265,-0.01 0.267,-0.015 0.267,-0.021C0.267,-0.026 0.265,-0.03 0.261,-0.034C0.257,-0.038 0.251,-0.04 0.244,-0.04L0.192,-0.04L0.192,-0.246C0.192,-0.263 0.199,-0.28 0.212,-0.297C0.226,-0.314 0.244,-0.328 0.268,-0.34C0.292,-0.351 0.319,-0.357 0.349,-0.357C0.378,-0.357 0.399,-0.349 0.414,-0.333C0.429,-0.316 0.437,-0.293 0.437,-0.264L0.437,-0.04Z" style="fill:rgb(0,0,139);fill-rule:nonzero;"/>
            </g>
            <g transform="matrix(26.3514,0,0,60,99.2654,155.256)">
                <path d="M0.179,-0.375C0.179,-0.38 0.177,-0.383 0.174,-0.387C0.171,-0.39 0.167,-0.392 0.162,-0.392C0.161,-0.392 0.159,-0.391 0.156,-0.391L0.071,-0.374C0.065,-0.372 0.061,-0.37 0.058,-0.367C0.055,-0.363 0.053,-0.36 0.053,-0.355C0.053,-0.349 0.055,-0.345 0.06,-0.34C0.064,-0.336 0.069,-0.334 0.076,-0.334C0.079,-0.334 0.082,-0.334 0.084,-0.335L0.132,-0.345L0.132,-0.128C0.132,-0.101 0.137,-0.077 0.149,-0.057C0.16,-0.036 0.176,-0.02 0.198,-0.009C0.219,0.003 0.245,0.008 0.274,0.008C0.305,0.008 0.334,0.001 0.362,-0.013C0.391,-0.027 0.412,-0.044 0.426,-0.065L0.429,-0.023C0.429,-0.015 0.431,-0.009 0.436,-0.005C0.44,-0.001 0.445,0.001 0.452,0.001L0.455,0.001L0.546,-0.008C0.552,-0.01 0.556,-0.012 0.56,-0.016C0.563,-0.02 0.564,-0.025 0.564,-0.03C0.564,-0.035 0.563,-0.039 0.56,-0.042C0.556,-0.045 0.551,-0.047 0.545,-0.047L0.542,-0.047L0.47,-0.042L0.47,-0.375C0.47,-0.38 0.468,-0.383 0.465,-0.387C0.462,-0.39 0.458,-0.392 0.453,-0.392C0.452,-0.392 0.45,-0.391 0.447,-0.391L0.362,-0.374C0.356,-0.372 0.351,-0.37 0.348,-0.366C0.345,-0.363 0.344,-0.359 0.344,-0.354C0.344,-0.349 0.346,-0.344 0.35,-0.34C0.354,-0.336 0.36,-0.333 0.367,-0.333C0.37,-0.333 0.373,-0.334 0.375,-0.335L0.423,-0.345L0.423,-0.113C0.416,-0.098 0.404,-0.084 0.388,-0.072C0.372,-0.059 0.354,-0.05 0.333,-0.042C0.313,-0.035 0.294,-0.032 0.274,-0.032C0.243,-0.032 0.219,-0.04 0.203,-0.058C0.187,-0.075 0.179,-0.098 0.179,-0.126L0.179,-0.375Z" style="fill:rgb(0,0,139);fill-rule:nonzero;"/>
            </g>
            <g transform="matrix(26.3514,0,0,60,116.538,155.256)">
                <path d="M0.428,-0.338C0.434,-0.338 0.439,-0.34 0.442,-0.344C0.446,-0.348 0.447,-0.352 0.447,-0.358C0.447,-0.363 0.446,-0.368 0.442,-0.372C0.439,-0.376 0.434,-0.378 0.428,-0.378L0.247,-0.378L0.247,-0.495C0.247,-0.502 0.245,-0.507 0.243,-0.511C0.241,-0.515 0.236,-0.517 0.229,-0.517C0.22,-0.517 0.213,-0.512 0.209,-0.504C0.205,-0.496 0.202,-0.483 0.201,-0.465C0.2,-0.448 0.2,-0.419 0.2,-0.378L0.128,-0.378C0.121,-0.378 0.116,-0.376 0.113,-0.372C0.109,-0.369 0.107,-0.364 0.107,-0.359C0.107,-0.353 0.109,-0.348 0.113,-0.344C0.117,-0.34 0.123,-0.338 0.13,-0.338L0.2,-0.338L0.2,-0.083C0.2,-0.067 0.205,-0.052 0.217,-0.038C0.229,-0.024 0.244,-0.012 0.263,-0.004C0.283,0.004 0.304,0.008 0.326,0.008C0.347,0.008 0.369,0.006 0.392,0.001C0.414,-0.004 0.433,-0.011 0.45,-0.019C0.467,-0.027 0.479,-0.035 0.485,-0.043C0.487,-0.045 0.488,-0.048 0.488,-0.05C0.488,-0.056 0.486,-0.061 0.481,-0.067C0.476,-0.072 0.472,-0.075 0.467,-0.075C0.465,-0.075 0.463,-0.075 0.462,-0.073C0.446,-0.062 0.426,-0.052 0.402,-0.044C0.377,-0.036 0.353,-0.032 0.331,-0.032C0.306,-0.032 0.285,-0.037 0.27,-0.048C0.254,-0.059 0.247,-0.076 0.247,-0.1L0.247,-0.338L0.428,-0.338Z" style="fill:rgb(0,0,139);fill-rule:nonzero;"/>
            </g>
            <g transform="matrix(26.3514,0,0,60,133.81,155.256)">
                <path d="M0.104,-0.199C0.104,-0.156 0.113,-0.119 0.131,-0.088C0.15,-0.057 0.176,-0.033 0.209,-0.017C0.243,0 0.281,0.008 0.325,0.008C0.352,0.008 0.382,0.003 0.414,-0.008C0.446,-0.019 0.47,-0.033 0.487,-0.051C0.493,-0.058 0.496,-0.065 0.496,-0.072C0.496,-0.078 0.494,-0.083 0.49,-0.087C0.487,-0.091 0.482,-0.093 0.476,-0.093C0.47,-0.093 0.463,-0.09 0.456,-0.085C0.438,-0.067 0.416,-0.054 0.393,-0.045C0.369,-0.036 0.345,-0.032 0.321,-0.032C0.271,-0.032 0.23,-0.045 0.199,-0.072C0.168,-0.098 0.152,-0.138 0.15,-0.189L0.458,-0.191C0.469,-0.191 0.478,-0.195 0.485,-0.203C0.492,-0.211 0.495,-0.222 0.495,-0.234C0.495,-0.269 0.488,-0.298 0.472,-0.323C0.457,-0.347 0.436,-0.366 0.41,-0.378C0.383,-0.391 0.353,-0.397 0.319,-0.397C0.28,-0.397 0.243,-0.389 0.211,-0.373C0.178,-0.357 0.152,-0.334 0.133,-0.304C0.113,-0.274 0.104,-0.239 0.104,-0.199ZM0.32,-0.357C0.371,-0.357 0.405,-0.344 0.423,-0.318C0.441,-0.293 0.451,-0.262 0.454,-0.227L0.152,-0.225C0.158,-0.267 0.175,-0.299 0.205,-0.322C0.234,-0.345 0.273,-0.357 0.32,-0.357Z" style="fill:rgb(0,0,139);fill-rule:nonzero;"/>
            </g>
            <g transform="matrix(26.3514,0,0,60,151.083,155.256)">
                <path d="M0.14,-0.286C0.14,-0.259 0.149,-0.237 0.167,-0.222C0.185,-0.206 0.21,-0.195 0.243,-0.189L0.373,-0.164C0.393,-0.16 0.408,-0.153 0.417,-0.142C0.426,-0.132 0.43,-0.119 0.43,-0.102C0.43,-0.078 0.42,-0.061 0.401,-0.049C0.381,-0.038 0.353,-0.032 0.315,-0.032C0.288,-0.032 0.263,-0.036 0.24,-0.044C0.217,-0.053 0.199,-0.065 0.186,-0.08C0.173,-0.095 0.166,-0.111 0.166,-0.129C0.166,-0.14 0.164,-0.147 0.161,-0.15C0.158,-0.153 0.154,-0.155 0.148,-0.155C0.144,-0.155 0.14,-0.153 0.136,-0.148C0.133,-0.144 0.131,-0.138 0.131,-0.129L0.13,-0.019C0.13,-0.014 0.132,-0.009 0.136,-0.005C0.14,-0.002 0.144,-0 0.149,-0C0.154,-0 0.158,-0.002 0.162,-0.005C0.165,-0.009 0.167,-0.014 0.167,-0.021L0.167,-0.05C0.185,-0.029 0.207,-0.014 0.233,-0.005C0.259,0.004 0.288,0.008 0.318,0.008C0.367,0.008 0.406,-0.001 0.434,-0.019C0.463,-0.038 0.478,-0.065 0.478,-0.102C0.478,-0.135 0.469,-0.16 0.452,-0.176C0.435,-0.193 0.41,-0.204 0.379,-0.21L0.252,-0.235C0.229,-0.241 0.213,-0.248 0.204,-0.257C0.195,-0.266 0.19,-0.278 0.19,-0.293C0.19,-0.336 0.225,-0.357 0.294,-0.357C0.329,-0.357 0.359,-0.352 0.384,-0.342C0.409,-0.332 0.425,-0.316 0.434,-0.296C0.434,-0.281 0.436,-0.27 0.438,-0.264C0.44,-0.257 0.445,-0.254 0.454,-0.254C0.46,-0.254 0.465,-0.256 0.468,-0.259C0.471,-0.262 0.472,-0.266 0.473,-0.272L0.474,-0.371C0.474,-0.378 0.472,-0.384 0.468,-0.388C0.464,-0.392 0.46,-0.395 0.454,-0.395C0.449,-0.395 0.444,-0.392 0.439,-0.388C0.435,-0.384 0.433,-0.378 0.434,-0.37L0.434,-0.352C0.424,-0.365 0.406,-0.375 0.379,-0.384C0.353,-0.393 0.326,-0.397 0.297,-0.397C0.253,-0.397 0.215,-0.389 0.185,-0.372C0.155,-0.355 0.14,-0.326 0.14,-0.286Z" style="fill:rgb(0,0,139);fill-rule:nonzero;"/>
            </g>
            <g transform="matrix(26.3514,0,0,60,168.355,155.256)">
                <path d="M0.28,-0.58C0.253,-0.58 0.23,-0.576 0.21,-0.567C0.19,-0.559 0.175,-0.547 0.163,-0.531C0.152,-0.514 0.146,-0.496 0.146,-0.474C0.146,-0.463 0.148,-0.453 0.152,-0.446C0.156,-0.439 0.162,-0.435 0.17,-0.435C0.18,-0.435 0.186,-0.439 0.191,-0.447C0.196,-0.454 0.199,-0.463 0.201,-0.474C0.202,-0.484 0.204,-0.498 0.205,-0.516L0.206,-0.528C0.218,-0.534 0.23,-0.538 0.242,-0.54C0.253,-0.542 0.266,-0.542 0.278,-0.542C0.3,-0.542 0.319,-0.538 0.334,-0.53C0.35,-0.522 0.363,-0.511 0.371,-0.496C0.38,-0.481 0.384,-0.465 0.384,-0.445C0.384,-0.439 0.384,-0.433 0.383,-0.427C0.381,-0.411 0.376,-0.396 0.369,-0.383C0.363,-0.37 0.355,-0.359 0.347,-0.349C0.339,-0.34 0.328,-0.328 0.314,-0.314C0.299,-0.299 0.288,-0.287 0.279,-0.276C0.27,-0.266 0.263,-0.254 0.257,-0.24C0.251,-0.225 0.249,-0.209 0.249,-0.192C0.249,-0.183 0.25,-0.176 0.251,-0.172C0.253,-0.167 0.258,-0.165 0.265,-0.165C0.271,-0.165 0.275,-0.167 0.278,-0.172C0.28,-0.176 0.281,-0.183 0.281,-0.192C0.281,-0.205 0.284,-0.216 0.29,-0.227C0.296,-0.238 0.303,-0.248 0.313,-0.258C0.322,-0.267 0.334,-0.278 0.35,-0.292C0.369,-0.308 0.385,-0.323 0.397,-0.337C0.41,-0.35 0.42,-0.365 0.429,-0.383C0.438,-0.401 0.442,-0.421 0.442,-0.442C0.442,-0.472 0.435,-0.497 0.421,-0.518C0.407,-0.538 0.388,-0.554 0.364,-0.564C0.339,-0.575 0.311,-0.58 0.28,-0.58ZM0.317,-0.046C0.317,-0.06 0.313,-0.072 0.303,-0.081C0.294,-0.09 0.282,-0.095 0.268,-0.095C0.254,-0.095 0.242,-0.09 0.233,-0.081C0.223,-0.071 0.218,-0.059 0.218,-0.045C0.218,-0.031 0.223,-0.02 0.233,-0.01C0.242,-0 0.254,0.004 0.268,0.004C0.282,0.004 0.294,-0 0.303,-0.01C0.313,-0.02 0.317,-0.032 0.317,-0.046Z" style="fill:rgb(0,0,139);fill-rule:nonzero;"/>
            </g>
        </g>
    </g>
</svg>
