<?xml version="1.0" encoding="UTF-8" standalone="no"?>
<!DOCTYPE svg PUBLIC "-//W3C//DTD SVG 1.1//EN" "http://www.w3.org/Graphics/SVG/1.1/DTD/svg11.dtd">
<svg width="100%" height="100%" viewBox="0 0 200 200" version="1.1" xmlns="http://www.w3.org/2000/svg" xmlns:xlink="http://www.w3.org/1999/xlink" xml:space="preserve" xmlns:serif="http://www.serif.com/" style="fill-rule:evenodd;clip-rule:evenodd;stroke-linejoin:round;stroke-miterlimit:2;">
    <g transform="matrix(1,0,0,1,-4.74054,-7.57492)">
        <circle cx="105.873" cy="110.072" r="74.688" style="fill:rgb(114,178,186);"/>
    </g>
    <g transform="matrix(1.13431,0,0,1,-30.0563,-3.57484)">
        <g>
            <g transform="matrix(79.3432,0,0,90,38.5346,124.571)">
                <path d="M0.14,-0.286C0.14,-0.259 0.149,-0.237 0.167,-0.222C0.185,-0.206 0.21,-0.195 0.243,-0.189L0.373,-0.164C0.393,-0.16 0.408,-0.153 0.417,-0.142C0.426,-0.132 0.43,-0.119 0.43,-0.102C0.43,-0.078 0.42,-0.061 0.401,-0.049C0.381,-0.038 0.353,-0.032 0.315,-0.032C0.288,-0.032 0.263,-0.036 0.24,-0.044C0.217,-0.053 0.199,-0.065 0.186,-0.08C0.173,-0.095 0.166,-0.111 0.166,-0.129C0.166,-0.14 0.164,-0.147 0.161,-0.15C0.158,-0.153 0.154,-0.155 0.148,-0.155C0.144,-0.155 0.14,-0.153 0.136,-0.148C0.133,-0.144 0.131,-0.138 0.131,-0.129L0.13,-0.019C0.13,-0.014 0.132,-0.009 0.136,-0.005C0.14,-0.002 0.144,-0 0.149,-0C0.154,-0 0.158,-0.002 0.162,-0.005C0.165,-0.009 0.167,-0.014 0.167,-0.021L0.167,-0.05C0.185,-0.029 0.207,-0.014 0.233,-0.005C0.259,0.004 0.288,0.008 0.318,0.008C0.367,0.008 0.406,-0.001 0.434,-0.019C0.463,-0.038 0.478,-0.065 0.478,-0.102C0.478,-0.135 0.469,-0.16 0.452,-0.176C0.435,-0.193 0.41,-0.204 0.379,-0.21L0.252,-0.235C0.229,-0.241 0.213,-0.248 0.204,-0.257C0.195,-0.266 0.19,-0.278 0.19,-0.293C0.19,-0.336 0.225,-0.357 0.294,-0.357C0.329,-0.357 0.359,-0.352 0.384,-0.342C0.409,-0.332 0.425,-0.316 0.434,-0.296C0.434,-0.281 0.436,-0.27 0.438,-0.264C0.44,-0.257 0.445,-0.254 0.454,-0.254C0.46,-0.254 0.465,-0.256 0.468,-0.259C0.471,-0.262 0.472,-0.266 0.473,-0.272L0.474,-0.371C0.474,-0.378 0.472,-0.384 0.468,-0.388C0.464,-0.392 0.46,-0.395 0.454,-0.395C0.449,-0.395 0.444,-0.392 0.439,-0.388C0.435,-0.384 0.433,-0.378 0.434,-0.37L0.434,-0.352C0.424,-0.365 0.406,-0.375 0.379,-0.384C0.353,-0.393 0.326,-0.397 0.297,-0.397C0.253,-0.397 0.215,-0.389 0.185,-0.372C0.155,-0.355 0.14,-0.326 0.14,-0.286Z" style="fill:rgb(0,0,139);fill-rule:nonzero;"/>
            </g>
            <g transform="matrix(79.3432,0,0,90,90.5416,124.571)">
                <path d="M0.104,-0.199C0.104,-0.156 0.113,-0.119 0.131,-0.088C0.15,-0.057 0.176,-0.033 0.209,-0.017C0.243,0 0.281,0.008 0.325,0.008C0.352,0.008 0.382,0.003 0.414,-0.008C0.446,-0.019 0.47,-0.033 0.487,-0.051C0.493,-0.058 0.496,-0.065 0.496,-0.072C0.496,-0.078 0.494,-0.083 0.49,-0.087C0.487,-0.091 0.482,-0.093 0.476,-0.093C0.47,-0.093 0.463,-0.09 0.456,-0.085C0.438,-0.067 0.416,-0.054 0.393,-0.045C0.369,-0.036 0.345,-0.032 0.321,-0.032C0.271,-0.032 0.23,-0.045 0.199,-0.072C0.168,-0.098 0.152,-0.138 0.15,-0.189L0.458,-0.191C0.469,-0.191 0.478,-0.195 0.485,-0.203C0.492,-0.211 0.495,-0.222 0.495,-0.234C0.495,-0.269 0.488,-0.298 0.472,-0.323C0.457,-0.347 0.436,-0.366 0.41,-0.378C0.383,-0.391 0.353,-0.397 0.319,-0.397C0.28,-0.397 0.243,-0.389 0.211,-0.373C0.178,-0.357 0.152,-0.334 0.133,-0.304C0.113,-0.274 0.104,-0.239 0.104,-0.199ZM0.32,-0.357C0.371,-0.357 0.405,-0.344 0.423,-0.318C0.441,-0.293 0.451,-0.262 0.454,-0.227L0.152,-0.225C0.158,-0.267 0.175,-0.299 0.205,-0.322C0.234,-0.345 0.273,-0.357 0.32,-0.357Z" style="fill:rgb(0,0,139);fill-rule:nonzero;"/>
            </g>
            <g transform="matrix(79.3432,0,0,90,142.549,124.571)">
                <path d="M0.397,-0.229L0.362,-0.227C0.309,-0.223 0.267,-0.219 0.235,-0.213C0.204,-0.208 0.177,-0.196 0.156,-0.179C0.134,-0.162 0.124,-0.136 0.124,-0.103C0.124,-0.069 0.134,-0.042 0.154,-0.022C0.175,-0.002 0.203,0.008 0.24,0.008C0.274,0.008 0.305,0.002 0.334,-0.01C0.363,-0.022 0.385,-0.037 0.401,-0.055C0.405,-0.032 0.412,-0.017 0.424,-0.009C0.435,-0.001 0.449,0.003 0.466,0.003C0.48,0.003 0.495,0 0.508,-0.006C0.522,-0.012 0.534,-0.021 0.544,-0.032C0.547,-0.035 0.549,-0.04 0.549,-0.044C0.549,-0.05 0.547,-0.054 0.543,-0.059C0.54,-0.063 0.536,-0.065 0.531,-0.065C0.527,-0.065 0.523,-0.063 0.519,-0.059C0.514,-0.053 0.506,-0.048 0.497,-0.043C0.487,-0.038 0.478,-0.035 0.47,-0.035C0.462,-0.035 0.456,-0.037 0.451,-0.041C0.447,-0.045 0.444,-0.053 0.444,-0.064L0.444,-0.217C0.444,-0.257 0.44,-0.289 0.432,-0.316C0.423,-0.342 0.408,-0.362 0.387,-0.376C0.366,-0.39 0.336,-0.397 0.299,-0.397C0.266,-0.397 0.236,-0.393 0.21,-0.384C0.185,-0.375 0.165,-0.363 0.15,-0.347C0.136,-0.332 0.129,-0.314 0.129,-0.294C0.129,-0.284 0.131,-0.276 0.136,-0.269C0.142,-0.263 0.149,-0.259 0.158,-0.259C0.169,-0.259 0.177,-0.266 0.182,-0.278C0.186,-0.291 0.189,-0.31 0.19,-0.335C0.208,-0.343 0.225,-0.348 0.242,-0.352C0.259,-0.355 0.278,-0.357 0.298,-0.357C0.335,-0.357 0.36,-0.347 0.375,-0.327C0.39,-0.306 0.397,-0.277 0.397,-0.239L0.397,-0.229ZM0.397,-0.092C0.38,-0.074 0.357,-0.059 0.33,-0.048C0.302,-0.037 0.274,-0.032 0.245,-0.032C0.223,-0.032 0.205,-0.037 0.191,-0.049C0.178,-0.06 0.171,-0.078 0.171,-0.103C0.171,-0.125 0.179,-0.143 0.194,-0.154C0.21,-0.166 0.231,-0.174 0.258,-0.179C0.284,-0.184 0.324,-0.189 0.377,-0.194L0.397,-0.196L0.397,-0.092Z" style="fill:rgb(0,0,139);fill-rule:nonzero;"/>
            </g>
        </g>
    </g>
</svg>
